#!OML:ASF E:\emotionWalksFemale\Project 1\Capture day 1\Session 1\Female1.ASF
:FULLY-SPECIFIED
:DEGREES
110
root 8.87533 15.1231 21.922 -160.893 -0.439544 -179.789
lowerback 24.9518 1.36485 2.1981
upperback 3.82051 1.55949 -0.156951
thorax -9.57909 0.330483 -1.8869
lowerneck -7.65546 -3.5888 -8.39496
upperneck -9.5738 -4.54632 9.64276
head -1.16534 -2.49689 4.22741
rclavicle 1.03368e-014 0
rhumerus -79.6651 30.0143 -36.5488
rradius 27.1008
rwrist 33.0812
rhand 11.3358 -68.7331
rfingers 7.12502
rthumb 36.3922 -265.048
lclavicle 1.03368e-014 0
lhumerus -63.5365 -7.4214 -12.1428
lradius 34.8681
lwrist -5.58897
lhand 13.6391 -18.8298
lfingers 7.12502
lthumb 38.5692 6.81223
rfemur -36.9299 6.74005 23.1413
rtibia 39.2585
rfoot -23.2686 -22.4583
rtoes -4.85476
lfemur -42.9527 -4.72418 -20.088
ltibia 44.1172
lfoot -25.855 5.221
ltoes -27.1996
111
root 8.87154 15.0746 21.9238 -160.015 -0.385019 -179.636
lowerback 25.1513 1.3115 2.2723
upperback 3.72237 1.51296 -0.287345
thorax -9.79 0.303851 -2.06594
lowerneck -7.25742 -3.35515 -8.03593
upperneck -10.2614 -4.29145 9.72699
head -1.45808 -2.41867 4.22294
rclavicle -1.07344e-014 -9.14409e-015
rhumerus -81.0238 28.7496 -38.6839
rradius 26.9541
rwrist 33.2657
rhand 12.9139 -68.8047
rfingers 7.12502
rthumb 37.8846 -265.365
lclavicle -1.07344e-014 -9.14409e-015
lhumerus -63.9918 -7.88588 -11.7773
lradius 34.1958
lwrist -3.07456
lhand 13.572 -17.7917
lfingers 7.12502
lthumb 38.5058 7.86813
rfemur -38.6402 6.65646 23.2662
rtibia 40.6068
rfoot -23.6858 -22.4407
rtoes -4.9579
lfemur -44.3108 -4.78976 -19.8366
ltibia 44.8834
lfoot -26.2385 5.62443
ltoes -27.2247
112
root 8.86873 15.0293 21.9274 -159.046 -0.306637 -179.544
lowerback 25.9582 1.39444 2.02716
upperback 3.26247 1.63397 -0.241673
thorax -10.7395 0.369338 -1.94247
lowerneck -7.46829 -3.31411 -7.7872
upperneck -10.0785 -4.30163 9.25833
head -1.56685 -2.40834 4.43978
rclavicle -1.11319e-014 6.36111e-015
rhumerus -82.8309 27.923 -41.2316
rradius 26.8565
rwrist 32.8631
rhand 13.2973 -69.0495
rfingers 7.12502
rthumb 38.2466 -265.219
lclavicle -1.11319e-014 6.36111e-015
lhumerus -65.3437 -7.05948 -11.9775
lradius 34.1888
lwrist -2.48111
lhand 12.8135 -17.601
lfingers 7.12502
lthumb 37.7897 8.25508
rfemur -40.4131 6.58486 23.327
rtibia 41.8322
rfoot -23.8412 -22.4179
rtoes -4.59202
lfemur -45.8636 -4.79786 -19.665
ltibia 45.817
lfoot -26.8101 5.95739
ltoes -26.7045
113
root 8.86492 14.9762 21.9319 -158.012 -0.188324 -179.44
lowerback 25.9559 1.47527 1.95411
upperback 3.24513 1.71866 -0.289261
thorax -10.7552 0.412581 -1.98342
lowerneck -7.41907 -3.21343 -7.63809
upperneck -10.8189 -4.22095 9.281
head -1.83589 -2.41384 4.44459
rclavicle 2.98177e-015 -1.78906e-015
rhumerus -85.9641 27.6891 -45.7977
rradius 27.9854
rwrist 30.5851
rhand 13.9433 -69.3346
rfingers 7.12502
rthumb 38.8561 -265.104
lclavicle 2.98177e-015 -1.78906e-015
lhumerus -66.9109 -5.59617 -12.0931
lradius 34.4557
lwrist -2.04012
lhand 12.0089 -17.6471
lfingers 7.12502
lthumb 37.0292 8.40986
rfemur -42.2695 6.56313 23.3836
rtibia 43.0417
rfoot -23.8234 -22.4262
rtoes -4.43553
lfemur -47.5258 -4.73345 -19.5154
ltibia 46.8537
lfoot -27.4243 6.20596
ltoes -26.3935
114
root 8.85873 14.9214 21.9314 -156.957 -0.0889895 -179.304
lowerback 25.7192 0.583525 1.70925
upperback 3.29083 1.92199 -0.498009
thorax -10.5899 1.11804 -2.25251
lowerneck -7.49746 -3.15154 -7.30938
upperneck -11.4313 -4.20401 9.22096
head -2.03886 -2.45436 4.37636
rclavicle 3.37934e-015 -3.77691e-015
rhumerus -83.8762 23.8989 -44.204
rradius 26.3233
rwrist 34.8089
rhand 14.0264 -68.3183
rfingers 7.12502
rthumb 38.9344 -266.143
lclavicle 3.37934e-015 -3.77691e-015
lhumerus -68.5001 -4.17296 -12.1921
lradius 34.5843
lwrist -1.57846
lhand 11.4947 -17.7658
lfingers 7.12502
lthumb 36.5426 8.41555
rfemur -44.1139 6.54683 23.4708
rtibia 44.2632
rfoot -23.8682 -22.4643
rtoes -4.44076
lfemur -49.2721 -4.66435 -19.336
ltibia 48.005
lfoot -27.9374 6.33027
ltoes -26.2065
115
root 8.85183 14.8683 21.9286 -155.998 -0.00212387 -179.12
lowerback 26.0641 0.649802 1.68537
upperback 3.09347 1.9918 -0.428596
thorax -10.9966 1.13256 -2.20071
lowerneck -8.25344 -3.30434 -6.9439
upperneck -11.1623 -4.44757 8.75139
head -1.81 -2.57466 4.09968
rclavicle 4.57205e-015 4.17448e-015
rhumerus -84.8883 22.6901 -46.7182
rradius 26.293
rwrist 34.4648
rhand 13.8787 -67.9998
rfingers 7.12502
rthumb 38.7952 -266.422
lclavicle 4.57205e-015 4.17448e-015
lhumerus -69.9752 -3.14664 -11.7599
lradius 34.2682
lwrist -1.34954
lhand 11.0504 -17.7383
lfingers 7.12502
lthumb 36.122 8.54819
rfemur -45.8254 6.57082 23.6079
rtibia 45.5257
rfoot -24.1386 -22.487
rtoes -3.99996
lfemur -51.0036 -4.53722 -19.1368
ltibia 49.2595
lfoot -28.3477 6.5195
ltoes -26.5241
116
root 8.84581 14.806 21.9293 -155.024 0.0875867 -178.939
lowerback 26.2483 0.726349 1.65975
upperback 3.00938 2.0843 -0.36621
thorax -11.1892 1.1685 -2.15591
lowerneck -8.48103 -3.314 -6.98639
upperneck -11.6386 -4.49876 8.74321
head -1.92764 -2.6307 4.1133
rclavicle 7.95139e-016 6.75868e-015
rhumerus -85.7508 21.4602 -49.2865
rradius 26.4997
rwrist 34.5099
rhand 14.5564 -67.0429
rfingers 7.12502
rthumb 39.4339 -267.563
lclavicle 7.95139e-016 6.75868e-015
lhumerus -71.6507 -2.19958 -10.8305
lradius 34.1132
lwrist -1.14583
lhand 10.3573 -17.3172
lfingers 7.12502
lthumb 35.4651 9.129
rfemur -47.6283 6.6254 23.7344
rtibia 46.8144
rfoot -24.4525 -22.5585
rtoes -3.83358
lfemur -52.82 -4.28864 -19.0218
ltibia 50.5659
lfoot -28.6356 6.7748
ltoes -26.5437
